<svg xmlns="http://www.w3.org/2000/svg" xmlns:xlink="http://www.w3.org/1999/xlink" width="200" zoomAndPan="magnify" viewBox="0 0 150 37.5" height="50" preserveAspectRatio="xMidYMid meet" version="1.0"><defs><g/><clipPath id="7517e8898b"><path d="M 1 9.230469 L 26 9.230469 L 26 21 L 1 21 Z M 1 9.230469 " clip-rule="nonzero"/></clipPath><clipPath id="ab6b0eb520"><path d="M 29 9.230469 L 47 9.230469 L 47 14 L 29 14 Z M 29 9.230469 " clip-rule="nonzero"/></clipPath><clipPath id="f1ebba37a4"><path d="M 36 17 L 41 17 L 41 27.734375 L 36 27.734375 Z M 36 17 " clip-rule="nonzero"/></clipPath><clipPath id="fd8d755181"><path d="M 42 22 L 63.15625 22 L 63.15625 26 L 42 26 Z M 42 22 " clip-rule="nonzero"/></clipPath><clipPath id="9ce2a9bdcf"><path d="M 38 23 L 43 23 L 43 27.734375 L 38 27.734375 Z M 38 23 " clip-rule="nonzero"/></clipPath><clipPath id="81751b2149"><path d="M 51 25 L 59 25 L 59 27.734375 L 51 27.734375 Z M 51 25 " clip-rule="nonzero"/></clipPath></defs><g clip-path="url(#7517e8898b)"><path fill="#64b431" d="M 23.660156 9.394531 C 24.109375 9.320312 24.558594 9.238281 25.011719 9.230469 C 23.699219 9.433594 22.40625 9.753906 21.167969 10.230469 C 20.023438 10.671875 18.945312 11.277344 17.972656 12.015625 C 17.066406 12.695312 16.253906 13.488281 15.394531 14.21875 C 14.421875 15.023438 13.363281 15.714844 12.269531 16.335938 C 9.917969 17.652344 7.410156 18.660156 4.851562 19.5 C 3.75 19.859375 2.640625 20.1875 1.515625 20.472656 C 1.351562 20.511719 1.1875 20.570312 1.019531 20.578125 C 1.660156 20.421875 2.289062 20.222656 2.921875 20.035156 C 5.597656 19.210938 8.234375 18.21875 10.722656 16.925781 C 12.476562 16.003906 14.160156 14.929688 15.636719 13.601562 C 15.988281 13.296875 16.304688 12.953125 16.660156 12.652344 C 18.632812 10.945312 21.101562 9.855469 23.660156 9.394531 Z M 23.660156 9.394531 " fill-opacity="1" fill-rule="nonzero"/></g><g clip-path="url(#ab6b0eb520)"><path fill="#64b431" d="M 29.871094 9.601562 C 32.710938 9.417969 35.5625 9.636719 38.375 10.035156 C 39.113281 10.089844 39.800781 10.375 40.492188 10.601562 C 42.660156 11.347656 44.808594 12.167969 46.890625 13.132812 C 45.113281 12.972656 43.328125 12.921875 41.542969 12.917969 C 39.410156 12.90625 37.277344 12.96875 35.148438 13.074219 C 34.640625 13.101562 34.128906 13.117188 33.628906 13.027344 C 33.230469 12.953125 32.835938 12.800781 32.523438 12.535156 C 31.675781 11.777344 30.871094 10.964844 29.957031 10.285156 C 29.796875 10.160156 29.601562 10.074219 29.488281 9.902344 C 29.445312 9.84375 29.4375 9.75 29.503906 9.707031 C 29.609375 9.628906 29.746094 9.617188 29.871094 9.601562 Z M 29.871094 9.601562 " fill-opacity="1" fill-rule="nonzero"/></g><path fill="#64b431" d="M 25.324219 10.117188 C 26.050781 10.042969 26.792969 10.078125 27.496094 10.285156 C 28.429688 10.554688 29.269531 11.089844 29.957031 11.773438 C 30.53125 12.339844 31 13.011719 31.390625 13.714844 C 28.585938 13.828125 25.777344 13.933594 22.972656 14.046875 C 22.585938 13.210938 22.085938 12.410156 21.429688 11.757812 C 21.324219 11.640625 21.171875 11.550781 21.125 11.394531 C 21.117188 11.269531 21.253906 11.214844 21.34375 11.171875 C 21.820312 10.972656 22.308594 10.804688 22.800781 10.652344 C 23.625 10.402344 24.464844 10.203125 25.324219 10.117188 Z M 25.324219 10.117188 " fill-opacity="1" fill-rule="nonzero"/><path fill="#64b431" d="M 19.832031 11.871094 C 20.019531 11.78125 20.199219 11.652344 20.410156 11.644531 C 20.574219 11.660156 20.699219 11.78125 20.824219 11.878906 C 21.183594 12.203125 21.464844 12.605469 21.730469 13.007812 C 21.878906 13.238281 22.019531 13.472656 22.148438 13.710938 C 22.191406 13.800781 22.242188 13.90625 22.199219 14.003906 C 22.132812 14.101562 22 14.089844 21.894531 14.09375 C 21.125 14.085938 20.355469 14.097656 19.589844 14.121094 C 18.851562 14.152344 18.113281 14.191406 17.386719 14.3125 C 17.121094 14.359375 16.851562 14.40625 16.605469 14.519531 C 17.167969 13.5625 18.042969 12.824219 19.003906 12.292969 C 19.273438 12.136719 19.554688 12.007812 19.832031 11.871094 Z M 19.832031 11.871094 " fill-opacity="1" fill-rule="nonzero"/><path fill="#64b431" d="M 37.683594 13.550781 C 39.367188 13.511719 41.046875 13.464844 42.726562 13.386719 C 44.539062 13.328125 46.359375 13.351562 48.164062 13.519531 C 49.730469 13.65625 51.289062 13.824219 52.84375 14.027344 C 53.664062 14.140625 54.484375 14.257812 55.296875 14.421875 C 56.5 14.652344 57.714844 14.890625 58.84375 15.386719 C 59.183594 15.539062 59.515625 15.707031 59.828125 15.90625 C 59.1875 15.660156 58.53125 15.449219 57.855469 15.320312 C 57.570312 15.261719 57.277344 15.230469 56.992188 15.175781 C 56.667969 15.148438 56.339844 15.175781 56.011719 15.171875 C 55 15.179688 53.984375 15.214844 52.976562 15.351562 C 52.847656 15.371094 52.695312 15.394531 52.613281 15.511719 C 52.539062 15.628906 52.59375 15.769531 52.644531 15.878906 C 52.996094 16.492188 53.308594 17.128906 53.632812 17.757812 C 53.851562 18.199219 54.082031 18.636719 54.296875 19.082031 C 53.417969 17.679688 52.203125 16.492188 50.796875 15.617188 C 50.554688 15.472656 50.308594 15.332031 50.054688 15.210938 C 49.707031 15.050781 49.332031 14.960938 48.953125 14.902344 C 48.230469 14.808594 47.515625 14.65625 46.796875 14.535156 C 43.363281 13.941406 39.882812 13.59375 36.398438 13.585938 C 36.824219 13.558594 37.253906 13.5625 37.683594 13.550781 Z M 37.683594 13.550781 " fill-opacity="1" fill-rule="nonzero"/><path fill="#64b431" d="M 46.253906 15.457031 C 46.800781 15.570312 47.347656 15.765625 47.765625 16.144531 C 48.007812 16.363281 48.183594 16.648438 48.261719 16.964844 C 48.3125 17.171875 48.285156 17.402344 48.160156 17.578125 C 48.003906 17.792969 47.757812 17.914062 47.511719 17.996094 C 47.734375 17.824219 47.96875 17.628906 48.0625 17.355469 C 48.152344 17.09375 48.066406 16.808594 47.910156 16.597656 C 47.664062 16.257812 47.3125 16.015625 46.957031 15.804688 C 46.730469 15.671875 46.496094 15.558594 46.253906 15.457031 Z M 46.253906 15.457031 " fill-opacity="1" fill-rule="nonzero"/><path fill="#64b431" d="M 56.710938 15.453125 C 56.863281 15.433594 57.015625 15.425781 57.167969 15.445312 C 57.882812 15.589844 58.609375 15.714844 59.308594 15.941406 C 59.511719 16.007812 59.714844 16.089844 59.882812 16.230469 C 60.105469 16.40625 60.246094 16.660156 60.339844 16.925781 C 60.5 17.398438 60.667969 17.871094 60.785156 18.355469 C 60.832031 18.5625 60.886719 18.796875 60.777344 18.992188 C 60.714844 19.121094 60.566406 19.183594 60.429688 19.175781 C 59.058594 19.070312 57.683594 19.015625 56.308594 18.996094 C 55.957031 18.980469 55.59375 19.027344 55.253906 18.910156 C 54.875 18.78125 54.597656 18.464844 54.371094 18.144531 C 54.003906 17.609375 53.675781 17.050781 53.371094 16.476562 C 53.277344 16.285156 53.1875 16.0625 53.242188 15.84375 C 53.285156 15.6875 53.457031 15.617188 53.609375 15.605469 C 54.640625 15.503906 55.675781 15.503906 56.710938 15.453125 Z M 56.710938 15.453125 " fill-opacity="1" fill-rule="nonzero"/><path fill="#64b431" d="M 45.40625 15.488281 C 45.941406 15.445312 46.449219 15.6875 46.898438 15.957031 C 47.183594 16.132812 47.464844 16.335938 47.65625 16.617188 C 47.816406 16.84375 47.898438 17.128906 47.84375 17.402344 C 47.769531 17.652344 47.546875 17.820312 47.304688 17.894531 C 47 17.984375 46.671875 17.96875 46.363281 17.910156 C 45.628906 17.769531 44.992188 17.234375 44.695312 16.554688 C 44.601562 16.347656 44.589844 16.089844 44.734375 15.910156 C 44.90625 15.703125 45.128906 15.511719 45.40625 15.488281 Z M 45.40625 15.488281 " fill-opacity="1" fill-rule="nonzero"/><path fill="#64b431" d="M 48.910156 15.503906 C 49.441406 15.414062 49.972656 15.621094 50.402344 15.917969 C 50.679688 16.109375 50.925781 16.339844 51.148438 16.585938 C 51.355469 16.796875 51.488281 17.074219 51.5625 17.359375 C 51.613281 17.589844 51.617188 17.855469 51.464844 18.050781 C 51.289062 18.277344 50.980469 18.347656 50.707031 18.34375 C 49.972656 18.273438 49.273438 17.875 48.839844 17.277344 C 48.679688 17.0625 48.554688 16.824219 48.457031 16.578125 C 48.382812 16.351562 48.359375 16.089844 48.457031 15.867188 C 48.535156 15.679688 48.710938 15.539062 48.910156 15.503906 Z M 48.910156 15.503906 " fill-opacity="1" fill-rule="nonzero"/><path fill="#64b431" d="M 50.140625 15.582031 C 50.609375 15.835938 51.078125 16.105469 51.480469 16.457031 C 51.683594 16.640625 51.875 16.847656 51.984375 17.101562 C 52.066406 17.292969 52.074219 17.523438 51.980469 17.710938 C 51.90625 17.867188 51.777344 17.984375 51.644531 18.085938 C 51.785156 17.835938 51.816406 17.53125 51.726562 17.261719 C 51.585938 16.824219 51.265625 16.480469 50.933594 16.179688 C 50.6875 15.953125 50.414062 15.773438 50.140625 15.582031 Z M 50.140625 15.582031 " fill-opacity="1" fill-rule="nonzero"/><path fill="#64b431" d="M 60.476562 16.578125 C 60.488281 16.570312 60.515625 16.558594 60.527344 16.550781 C 60.660156 16.578125 60.757812 16.675781 60.851562 16.765625 C 61.125 17.054688 61.3125 17.40625 61.472656 17.765625 C 61.578125 18.019531 61.695312 18.269531 61.734375 18.542969 C 61.746094 18.660156 61.757812 18.796875 61.671875 18.890625 C 61.617188 18.925781 61.554688 18.882812 61.515625 18.847656 C 61.164062 18.5 60.988281 18.019531 60.765625 17.589844 C 60.644531 17.335938 60.519531 17.085938 60.453125 16.816406 C 60.441406 16.738281 60.417969 16.644531 60.476562 16.578125 Z M 60.476562 16.578125 " fill-opacity="1" fill-rule="nonzero"/><g clip-path="url(#f1ebba37a4)"><path fill="#64b431" d="M 36.78125 17.4375 C 37.375 17.332031 38.003906 17.335938 38.574219 17.558594 C 39.074219 17.746094 39.503906 18.085938 39.835938 18.5 C 40.25 19.015625 40.527344 19.628906 40.710938 20.261719 C 40.910156 20.957031 41.003906 21.679688 40.996094 22.402344 C 40.957031 23.042969 40.871094 23.6875 40.703125 24.308594 C 40.542969 24.890625 40.300781 25.460938 39.933594 25.945312 C 39.613281 26.375 39.183594 26.726562 38.683594 26.933594 C 38.121094 27.171875 37.492188 27.230469 36.890625 27.148438 C 37.414062 27.097656 37.933594 26.929688 38.359375 26.609375 C 38.839844 26.253906 39.1875 25.746094 39.425781 25.199219 C 39.734375 24.492188 39.886719 23.730469 39.976562 22.964844 C 40.074219 22.222656 40.058594 21.46875 39.964844 20.726562 C 39.886719 20.113281 39.734375 19.503906 39.449219 18.953125 C 39.207031 18.476562 38.847656 18.054688 38.382812 17.785156 C 37.902344 17.496094 37.332031 17.402344 36.78125 17.4375 Z M 36.78125 17.4375 " fill-opacity="1" fill-rule="nonzero"/></g><path fill="#64b431" d="M 16.917969 19.089844 C 17.195312 19.5625 17.492188 20.03125 17.878906 20.421875 C 18.105469 20.644531 18.367188 20.835938 18.664062 20.953125 C 18.980469 21.074219 19.320312 21.105469 19.652344 21.128906 C 23.695312 21.375 27.738281 21.605469 31.785156 21.84375 C 32.027344 21.863281 32.277344 21.851562 32.519531 21.894531 C 30.605469 21.851562 28.6875 21.835938 26.773438 21.800781 C 24.3125 21.765625 21.851562 21.722656 19.390625 21.6875 C 19.074219 21.675781 18.75 21.703125 18.433594 21.636719 C 17.964844 21.53125 17.597656 21.140625 17.453125 20.691406 C 17.277344 20.15625 17.085938 19.625 16.917969 19.089844 Z M 16.917969 19.089844 " fill-opacity="1" fill-rule="nonzero"/><path fill="#64b431" d="M 19.820312 22.4375 C 19.960938 22.421875 20.101562 22.386719 20.246094 22.386719 C 22.917969 22.492188 25.585938 22.589844 28.257812 22.667969 C 29.226562 22.691406 30.191406 22.726562 31.160156 22.726562 C 31.269531 22.730469 31.375 22.742188 31.484375 22.753906 C 31.101562 22.746094 30.71875 22.785156 30.335938 22.792969 C 27.90625 22.890625 25.476562 22.898438 23.050781 22.886719 C 21.136719 22.875 19.222656 22.84375 17.308594 22.796875 C 18.144531 22.671875 18.980469 22.558594 19.820312 22.4375 Z M 19.820312 22.4375 " fill-opacity="1" fill-rule="nonzero"/><g clip-path="url(#fd8d755181)"><path fill="#64b431" d="M 42.261719 22.730469 C 42.28125 22.675781 42.347656 22.683594 42.398438 22.683594 C 43.828125 22.753906 45.261719 22.8125 46.695312 22.78125 C 46.921875 23.222656 47.304688 23.585938 47.773438 23.757812 C 48.074219 23.875 48.402344 23.917969 48.726562 23.90625 C 51.316406 24.070312 53.910156 24.203125 56.503906 24.167969 C 57.429688 24.132812 58.351562 24.078125 59.273438 23.992188 C 59.988281 23.921875 60.707031 23.835938 61.410156 23.6875 C 61.714844 23.621094 62.015625 23.546875 62.304688 23.425781 C 62.453125 23.359375 62.609375 23.285156 62.703125 23.144531 C 62.851562 23.335938 62.914062 23.570312 62.984375 23.796875 C 63.046875 24.015625 63.003906 24.261719 62.855469 24.429688 C 62.640625 24.683594 62.324219 24.808594 62.019531 24.914062 C 61.382812 25.113281 60.71875 25.203125 60.058594 25.28125 C 58.34375 25.460938 56.617188 25.511719 54.894531 25.570312 C 51.332031 25.6875 47.761719 25.582031 44.210938 25.28125 C 43.636719 25.226562 43.066406 25.175781 42.496094 25.105469 C 42.449219 25.09375 42.378906 25.101562 42.371094 25.042969 C 42.371094 24.269531 42.332031 23.5 42.261719 22.730469 Z M 42.261719 22.730469 " fill-opacity="1" fill-rule="nonzero"/></g><g clip-path="url(#9ce2a9bdcf)"><path fill="#64b431" d="M 39.761719 26.585938 C 40.726562 25.753906 41.222656 24.476562 41.277344 23.222656 C 41.363281 23.566406 41.359375 23.925781 41.382812 24.28125 C 41.394531 24.753906 41.40625 25.226562 41.378906 25.695312 C 41.402344 25.792969 41.523438 25.820312 41.605469 25.839844 C 42.015625 25.902344 42.433594 25.894531 42.847656 25.929688 C 42.730469 26.125 42.554688 26.273438 42.398438 26.429688 C 42.152344 26.667969 41.894531 26.890625 41.632812 27.109375 C 41.332031 27.355469 40.917969 27.335938 40.550781 27.382812 C 39.765625 27.4375 38.976562 27.5 38.1875 27.425781 C 38.761719 27.257812 39.308594 26.980469 39.761719 26.585938 Z M 39.761719 26.585938 " fill-opacity="1" fill-rule="nonzero"/></g><path fill="#64b431" d="M 11.113281 23.867188 C 11.839844 23.925781 12.566406 24.015625 13.292969 24.085938 C 16.652344 24.425781 20.015625 24.746094 23.378906 25.039062 C 25.628906 25.234375 27.882812 25.417969 30.136719 25.546875 C 30.691406 25.570312 31.242188 25.613281 31.796875 25.617188 C 30.902344 25.628906 30.007812 25.605469 29.113281 25.597656 C 26.851562 25.578125 24.585938 25.5625 22.324219 25.550781 C 22.160156 25.546875 22 25.558594 21.839844 25.546875 C 18.261719 24.988281 14.6875 24.421875 11.113281 23.867188 Z M 11.113281 23.867188 " fill-opacity="1" fill-rule="nonzero"/><g clip-path="url(#81751b2149)"><path fill="#64b431" d="M 56.835938 26.109375 C 57.535156 26.089844 58.234375 26.054688 58.933594 25.996094 C 58.8125 26.214844 58.609375 26.371094 58.421875 26.53125 C 57.554688 27.207031 56.492188 27.664062 55.386719 27.726562 C 54.679688 27.769531 53.964844 27.628906 53.328125 27.328125 C 52.710938 27.039062 52.164062 26.617188 51.695312 26.128906 C 53.410156 26.148438 55.121094 26.152344 56.835938 26.109375 Z M 56.835938 26.109375 " fill-opacity="1" fill-rule="nonzero"/></g><g fill="#050a30" fill-opacity="1"><g transform="translate(66.44997, 18.027338)"><g><path d="M 3.015625 -6.421875 L 0.71875 -6.421875 L 1.078125 -8.203125 L 8.09375 -8.203125 L 7.71875 -6.421875 L 5.40625 -6.421875 L 4.046875 0 L 1.65625 0 Z M 3.015625 -6.421875 "/></g></g></g><g fill="#050a30" fill-opacity="1"><g transform="translate(74.857114, 18.027338)"><g><path d="M 4.484375 -8.203125 L 7.015625 -8.203125 L 8.4375 0 L 5.9375 0 L 5.640625 -1.75 L 3.140625 -1.75 L 2.09375 0 L -0.390625 0 Z M 5.65625 -3.46875 L 5.25 -5.875 L 3.828125 -3.46875 Z M 5.65625 -3.46875 "/></g></g></g><g fill="#050a30" fill-opacity="1"><g transform="translate(85.595296, 18.027338)"><g><path d="M 3.515625 -4.15625 L 1.453125 -8.203125 L 4.296875 -8.203125 L 5.34375 -6.046875 L 7.328125 -8.203125 L 10.171875 -8.203125 L 6.40625 -4.15625 L 8.5625 0 L 5.671875 0 L 4.546875 -2.234375 L 2.5 0 L -0.390625 0 Z M 3.515625 -4.15625 "/></g></g></g><g fill="#050a30" fill-opacity="1"><g transform="translate(96.460858, 18.027338)"><g><path d="M 1.59375 -8.203125 L 3.984375 -8.203125 L 2.25 0 L -0.140625 0 Z M 1.59375 -8.203125 "/></g></g></g><g fill="#050a30" fill-opacity="1"><g transform="translate(101.275912, 18.027338)"><g/></g></g><g fill="#050a30" fill-opacity="1"><g transform="translate(106.880719, 18.027338)"><g><path d="M 1.59375 -8.203125 L 3.984375 -8.203125 L 2.640625 -1.828125 L 6.328125 -1.828125 L 5.953125 0 L -0.140625 0 Z M 1.59375 -8.203125 "/></g></g></g><g fill="#050a30" fill-opacity="1"><g transform="translate(114.880255, 18.027338)"><g><path d="M 4.484375 -8.203125 L 7.015625 -8.203125 L 8.4375 0 L 5.9375 0 L 5.640625 -1.75 L 3.140625 -1.75 L 2.09375 0 L -0.390625 0 Z M 5.65625 -3.46875 L 5.25 -5.875 L 3.828125 -3.46875 Z M 5.65625 -3.46875 "/></g></g></g><g fill="#050a30" fill-opacity="1"><g transform="translate(125.618439, 18.027338)"><g/></g></g><g fill="#050a30" fill-opacity="1"><g transform="translate(131.223242, 18.027338)"><g><path d="M 4.046875 0.125 C 2.910156 0.125 2.007812 -0.140625 1.34375 -0.671875 C 0.675781 -1.210938 0.34375 -1.984375 0.34375 -2.984375 C 0.34375 -3.304688 0.378906 -3.65625 0.453125 -4.03125 C 1.066406 -6.894531 2.921875 -8.328125 6.015625 -8.328125 C 6.984375 -8.328125 7.8125 -8.207031 8.5 -7.96875 L 8.046875 -5.921875 C 7.441406 -6.171875 6.675781 -6.296875 5.75 -6.296875 C 5 -6.296875 4.375 -6.109375 3.875 -5.734375 C 3.382812 -5.367188 3.0625 -4.800781 2.90625 -4.03125 C 2.820312 -3.695312 2.78125 -3.40625 2.78125 -3.15625 C 2.78125 -2.71875 2.910156 -2.398438 3.171875 -2.203125 C 3.441406 -2.003906 3.878906 -1.90625 4.484375 -1.90625 C 4.890625 -1.90625 5.289062 -1.960938 5.6875 -2.078125 L 5.953125 -3.265625 L 4.3125 -3.265625 L 4.640625 -4.75 L 8.265625 -4.75 L 7.390625 -0.625 C 6.984375 -0.40625 6.5 -0.222656 5.9375 -0.078125 C 5.382812 0.0546875 4.753906 0.125 4.046875 0.125 Z M 4.046875 0.125 "/></g></g></g><g fill="#050a30" fill-opacity="1"><g transform="translate(140.789541, 18.027338)"><g><path d="M 1.59375 -8.203125 L 3.984375 -8.203125 L 2.25 0 L -0.140625 0 Z M 1.59375 -8.203125 "/></g></g></g><g fill="#64b431" fill-opacity="1"><g transform="translate(67.603682, 27.747618)"><g><path d="M 1.546875 0 C 1.503906 0 1.46875 -0.0078125 1.4375 -0.03125 C 1.40625 -0.0625 1.390625 -0.101562 1.390625 -0.15625 L 1.390625 -3.4375 L 0.28125 -3.4375 C 0.238281 -3.4375 0.203125 -3.445312 0.171875 -3.46875 C 0.148438 -3.5 0.140625 -3.535156 0.140625 -3.578125 L 0.140625 -4.140625 C 0.140625 -4.179688 0.148438 -4.210938 0.171875 -4.234375 C 0.203125 -4.265625 0.238281 -4.28125 0.28125 -4.28125 L 3.484375 -4.28125 C 3.535156 -4.28125 3.570312 -4.265625 3.59375 -4.234375 C 3.625 -4.210938 3.640625 -4.179688 3.640625 -4.140625 L 3.640625 -3.578125 C 3.640625 -3.535156 3.625 -3.5 3.59375 -3.46875 C 3.570312 -3.445312 3.535156 -3.4375 3.484375 -3.4375 L 2.375 -3.4375 L 2.375 -0.15625 C 2.375 -0.101562 2.359375 -0.0625 2.328125 -0.03125 C 2.304688 -0.0078125 2.273438 0 2.234375 0 Z M 1.546875 0 "/></g></g></g><g fill="#64b431" fill-opacity="1"><g transform="translate(74.793089, 27.747618)"><g><path d="M 0.203125 0 C 0.160156 0 0.128906 -0.0078125 0.109375 -0.03125 C 0.0859375 -0.0625 0.078125 -0.09375 0.078125 -0.125 C 0.078125 -0.144531 0.078125 -0.164062 0.078125 -0.1875 L 1.53125 -4.125 C 1.550781 -4.164062 1.578125 -4.203125 1.609375 -4.234375 C 1.648438 -4.265625 1.703125 -4.28125 1.765625 -4.28125 L 2.546875 -4.28125 C 2.609375 -4.28125 2.65625 -4.265625 2.6875 -4.234375 C 2.726562 -4.203125 2.757812 -4.164062 2.78125 -4.125 L 4.234375 -0.1875 C 4.242188 -0.164062 4.25 -0.144531 4.25 -0.125 C 4.25 -0.09375 4.234375 -0.0625 4.203125 -0.03125 C 4.179688 -0.0078125 4.148438 0 4.109375 0 L 3.46875 0 C 3.40625 0 3.359375 -0.0078125 3.328125 -0.03125 C 3.304688 -0.0625 3.289062 -0.09375 3.28125 -0.125 L 3.015625 -0.8125 L 1.296875 -0.8125 L 1.03125 -0.125 C 1.019531 -0.09375 1 -0.0625 0.96875 -0.03125 C 0.945312 -0.0078125 0.90625 0 0.84375 0 Z M 1.53125 -1.59375 L 2.78125 -1.59375 L 2.15625 -3.359375 Z M 2 -4.59375 C 1.945312 -4.59375 1.90625 -4.597656 1.875 -4.609375 C 1.84375 -4.628906 1.8125 -4.648438 1.78125 -4.671875 L 0.984375 -5.328125 C 0.960938 -5.347656 0.953125 -5.367188 0.953125 -5.390625 C 0.953125 -5.472656 0.992188 -5.515625 1.078125 -5.515625 L 1.828125 -5.515625 C 1.878906 -5.515625 1.921875 -5.503906 1.953125 -5.484375 C 1.984375 -5.472656 2.015625 -5.445312 2.046875 -5.40625 L 2.578125 -4.765625 C 2.597656 -4.742188 2.609375 -4.71875 2.609375 -4.6875 C 2.609375 -4.625 2.570312 -4.59375 2.5 -4.59375 Z M 2 -4.59375 "/></g></g></g><g fill="#64b431" fill-opacity="1"><g transform="translate(82.515666, 27.747618)"><g><path d="M 0.59375 0 C 0.550781 0 0.515625 -0.0078125 0.484375 -0.03125 C 0.460938 -0.0625 0.453125 -0.101562 0.453125 -0.15625 L 0.453125 -4.140625 C 0.453125 -4.179688 0.460938 -4.210938 0.484375 -4.234375 C 0.515625 -4.265625 0.550781 -4.28125 0.59375 -4.28125 L 1.296875 -4.28125 C 1.335938 -4.28125 1.375 -4.265625 1.40625 -4.234375 C 1.4375 -4.210938 1.453125 -4.179688 1.453125 -4.140625 L 1.453125 -0.15625 C 1.453125 -0.101562 1.4375 -0.0625 1.40625 -0.03125 C 1.375 -0.0078125 1.335938 0 1.296875 0 Z M 0.59375 0 "/></g></g></g><g fill="#64b431" fill-opacity="1"><g transform="translate(87.829789, 27.747618)"><g/></g></g><g fill="#64b431" fill-opacity="1"><g transform="translate(92.592355, 27.747618)"><g><path d="M 0.21875 0 C 0.1875 0 0.15625 -0.0078125 0.125 -0.03125 C 0.101562 -0.0625 0.09375 -0.09375 0.09375 -0.125 C 0.09375 -0.132812 0.09375 -0.144531 0.09375 -0.15625 C 0.101562 -0.175781 0.109375 -0.191406 0.109375 -0.203125 L 1.46875 -2.1875 L 0.203125 -4.078125 C 0.191406 -4.109375 0.1875 -4.132812 0.1875 -4.15625 C 0.1875 -4.1875 0.195312 -4.210938 0.21875 -4.234375 C 0.238281 -4.265625 0.269531 -4.28125 0.3125 -4.28125 L 1.0625 -4.28125 C 1.125 -4.28125 1.171875 -4.265625 1.203125 -4.234375 C 1.234375 -4.210938 1.253906 -4.191406 1.265625 -4.171875 L 2.09375 -2.953125 L 2.90625 -4.171875 C 2.925781 -4.191406 2.953125 -4.210938 2.984375 -4.234375 C 3.015625 -4.265625 3.054688 -4.28125 3.109375 -4.28125 L 3.828125 -4.28125 C 3.867188 -4.28125 3.898438 -4.265625 3.921875 -4.234375 C 3.941406 -4.210938 3.953125 -4.1875 3.953125 -4.15625 C 3.953125 -4.125 3.945312 -4.097656 3.9375 -4.078125 L 2.671875 -2.1875 L 4.03125 -0.203125 C 4.039062 -0.191406 4.046875 -0.175781 4.046875 -0.15625 C 4.054688 -0.144531 4.0625 -0.132812 4.0625 -0.125 C 4.0625 -0.09375 4.046875 -0.0625 4.015625 -0.03125 C 3.984375 -0.0078125 3.953125 0 3.921875 0 L 3.140625 0 C 3.085938 0 3.046875 -0.0078125 3.015625 -0.03125 C 2.984375 -0.0625 2.960938 -0.0859375 2.953125 -0.109375 L 2.046875 -1.390625 L 1.171875 -0.109375 C 1.148438 -0.0859375 1.125 -0.0625 1.09375 -0.03125 C 1.0625 -0.0078125 1.019531 0 0.96875 0 Z M 0.21875 0 "/></g></g></g><g fill="#64b431" fill-opacity="1"><g transform="translate(100.143339, 27.747618)"><g><path d="M 0.59375 0 C 0.550781 0 0.515625 -0.0078125 0.484375 -0.03125 C 0.460938 -0.0625 0.453125 -0.101562 0.453125 -0.15625 L 0.453125 -4.140625 C 0.453125 -4.179688 0.460938 -4.210938 0.484375 -4.234375 C 0.515625 -4.265625 0.550781 -4.28125 0.59375 -4.28125 L 3.375 -4.28125 C 3.425781 -4.28125 3.460938 -4.265625 3.484375 -4.234375 C 3.515625 -4.210938 3.53125 -4.179688 3.53125 -4.140625 L 3.53125 -3.640625 C 3.53125 -3.597656 3.515625 -3.5625 3.484375 -3.53125 C 3.460938 -3.5 3.425781 -3.484375 3.375 -3.484375 L 1.390625 -3.484375 L 1.390625 -2.53125 L 3.25 -2.53125 C 3.289062 -2.53125 3.328125 -2.515625 3.359375 -2.484375 C 3.390625 -2.460938 3.40625 -2.425781 3.40625 -2.375 L 3.40625 -1.921875 C 3.40625 -1.890625 3.390625 -1.859375 3.359375 -1.828125 C 3.328125 -1.796875 3.289062 -1.78125 3.25 -1.78125 L 1.390625 -1.78125 L 1.390625 -0.796875 L 3.4375 -0.796875 C 3.476562 -0.796875 3.507812 -0.78125 3.53125 -0.75 C 3.5625 -0.71875 3.578125 -0.679688 3.578125 -0.640625 L 3.578125 -0.15625 C 3.578125 -0.101562 3.5625 -0.0625 3.53125 -0.03125 C 3.507812 -0.0078125 3.476562 0 3.4375 0 Z M 0.9375 -4.59375 C 0.875 -4.59375 0.84375 -4.617188 0.84375 -4.671875 C 0.84375 -4.710938 0.859375 -4.75 0.890625 -4.78125 L 1.5 -5.421875 C 1.539062 -5.460938 1.578125 -5.488281 1.609375 -5.5 C 1.640625 -5.507812 1.675781 -5.515625 1.71875 -5.515625 L 2.15625 -5.515625 C 2.195312 -5.515625 2.226562 -5.507812 2.25 -5.5 C 2.28125 -5.488281 2.316406 -5.460938 2.359375 -5.421875 L 2.984375 -4.78125 C 3.015625 -4.75 3.03125 -4.710938 3.03125 -4.671875 C 3.03125 -4.617188 3 -4.59375 2.9375 -4.59375 L 2.671875 -4.59375 C 2.628906 -4.59375 2.585938 -4.59375 2.546875 -4.59375 C 2.515625 -4.601562 2.488281 -4.617188 2.46875 -4.640625 L 1.9375 -4.953125 L 1.40625 -4.640625 C 1.375 -4.617188 1.335938 -4.601562 1.296875 -4.59375 C 1.265625 -4.59375 1.234375 -4.59375 1.203125 -4.59375 Z M 0.9375 -4.59375 "/></g></g></g><g fill="#64b431" fill-opacity="1"><g transform="translate(101.338474, 25.412509)"><g><path d="M 0.46875 -3.640625 C 0.40625 -3.640625 0.375 -3.675781 0.375 -3.75 C 0.375 -3.78125 0.378906 -3.804688 0.390625 -3.828125 L 0.921875 -4.453125 C 0.953125 -4.503906 0.984375 -4.535156 1.015625 -4.546875 C 1.046875 -4.554688 1.085938 -4.5625 1.140625 -4.5625 L 1.84375 -4.5625 C 1.925781 -4.5625 1.96875 -4.523438 1.96875 -4.453125 C 1.96875 -4.421875 1.957031 -4.394531 1.9375 -4.375 L 1.15625 -3.734375 C 1.125 -3.703125 1.085938 -3.675781 1.046875 -3.65625 C 1.015625 -3.644531 0.972656 -3.640625 0.921875 -3.640625 Z M 0.46875 -3.640625 "/></g></g></g><g fill="#64b431" fill-opacity="1"><g transform="translate(107.418546, 27.747618)"><g/></g></g><g fill="#64b431" fill-opacity="1"><g transform="translate(112.181112, 27.747618)"><g><path d="M 1.546875 0 C 1.503906 0 1.46875 -0.0078125 1.4375 -0.03125 C 1.40625 -0.0625 1.390625 -0.101562 1.390625 -0.15625 L 1.390625 -3.4375 L 0.28125 -3.4375 C 0.238281 -3.4375 0.203125 -3.445312 0.171875 -3.46875 C 0.148438 -3.5 0.140625 -3.535156 0.140625 -3.578125 L 0.140625 -4.140625 C 0.140625 -4.179688 0.148438 -4.210938 0.171875 -4.234375 C 0.203125 -4.265625 0.238281 -4.28125 0.28125 -4.28125 L 3.484375 -4.28125 C 3.535156 -4.28125 3.570312 -4.265625 3.59375 -4.234375 C 3.625 -4.210938 3.640625 -4.179688 3.640625 -4.140625 L 3.640625 -3.578125 C 3.640625 -3.535156 3.625 -3.5 3.59375 -3.46875 C 3.570312 -3.445312 3.535156 -3.4375 3.484375 -3.4375 L 2.375 -3.4375 L 2.375 -0.15625 C 2.375 -0.101562 2.359375 -0.0625 2.328125 -0.03125 C 2.304688 -0.0078125 2.273438 0 2.234375 0 Z M 1.546875 0 "/></g></g></g><g fill="#64b431" fill-opacity="1"><g transform="translate(119.370518, 27.747618)"><g><path d="M 0.53125 0 C 0.488281 0 0.453125 -0.0078125 0.421875 -0.03125 C 0.398438 -0.0625 0.390625 -0.101562 0.390625 -0.15625 L 0.390625 -4.203125 C 0.390625 -4.242188 0.398438 -4.273438 0.421875 -4.296875 C 0.453125 -4.328125 0.488281 -4.34375 0.53125 -4.34375 L 1.203125 -4.34375 C 1.242188 -4.34375 1.28125 -4.328125 1.3125 -4.296875 C 1.34375 -4.273438 1.359375 -4.242188 1.359375 -4.203125 L 1.359375 -2.8125 C 1.460938 -2.945312 1.59375 -3.050781 1.75 -3.125 C 1.914062 -3.207031 2.109375 -3.25 2.328125 -3.25 C 2.566406 -3.25 2.78125 -3.191406 2.96875 -3.078125 C 3.15625 -2.972656 3.300781 -2.816406 3.40625 -2.609375 C 3.507812 -2.398438 3.5625 -2.148438 3.5625 -1.859375 L 3.5625 -0.15625 C 3.5625 -0.101562 3.546875 -0.0625 3.515625 -0.03125 C 3.492188 -0.0078125 3.457031 0 3.40625 0 L 2.75 0 C 2.707031 0 2.671875 -0.0078125 2.640625 -0.03125 C 2.609375 -0.0625 2.59375 -0.101562 2.59375 -0.15625 L 2.59375 -1.828125 C 2.59375 -2.046875 2.539062 -2.210938 2.4375 -2.328125 C 2.332031 -2.453125 2.179688 -2.515625 1.984375 -2.515625 C 1.796875 -2.515625 1.644531 -2.453125 1.53125 -2.328125 C 1.414062 -2.210938 1.359375 -2.046875 1.359375 -1.828125 L 1.359375 -0.15625 C 1.359375 -0.101562 1.34375 -0.0625 1.3125 -0.03125 C 1.28125 -0.0078125 1.242188 0 1.203125 0 Z M 0.53125 0 "/></g></g></g><g fill="#64b431" fill-opacity="1"><g transform="translate(126.69475, 27.747618)"><g><path d="M 0.9375 -4.65625 C 1.070312 -4.65625 1.1875 -4.625 1.28125 -4.5625 C 1.382812 -4.5 1.4375 -4.378906 1.4375 -4.203125 C 1.4375 -4.035156 1.382812 -3.921875 1.28125 -3.859375 C 1.1875 -3.796875 1.070312 -3.765625 0.9375 -3.765625 C 0.800781 -3.765625 0.679688 -3.796875 0.578125 -3.859375 C 0.484375 -3.921875 0.4375 -4.035156 0.4375 -4.203125 C 0.4375 -4.378906 0.484375 -4.5 0.578125 -4.5625 C 0.679688 -4.625 0.800781 -4.65625 0.9375 -4.65625 Z M 1.390625 -3.34375 L 1.390625 0 L 0.484375 0 L 0.484375 -3.34375 Z M 0.9375 1.28125 C 0.800781 1.28125 0.6875 1.25 0.59375 1.1875 C 0.5 1.125 0.453125 1.007812 0.453125 0.84375 C 0.453125 0.664062 0.5 0.546875 0.59375 0.484375 C 0.6875 0.421875 0.800781 0.390625 0.9375 0.390625 C 1.070312 0.390625 1.1875 0.421875 1.28125 0.484375 C 1.382812 0.546875 1.4375 0.664062 1.4375 0.84375 C 1.4375 1.007812 1.382812 1.125 1.28125 1.1875 C 1.1875 1.25 1.070312 1.28125 0.9375 1.28125 Z M 0.9375 1.28125 "/></g></g></g><g fill="#64b431" fill-opacity="1"><g transform="translate(131.972103, 27.747618)"><g><path d="M 0.53125 0 C 0.488281 0 0.453125 -0.0078125 0.421875 -0.03125 C 0.390625 -0.0625 0.375 -0.101562 0.375 -0.15625 L 0.375 -3.03125 C 0.375 -3.070312 0.390625 -3.109375 0.421875 -3.140625 C 0.453125 -3.171875 0.488281 -3.1875 0.53125 -3.1875 L 1.140625 -3.1875 C 1.179688 -3.1875 1.210938 -3.171875 1.234375 -3.140625 C 1.265625 -3.109375 1.28125 -3.070312 1.28125 -3.03125 L 1.28125 -2.796875 C 1.394531 -2.921875 1.535156 -3.023438 1.703125 -3.109375 C 1.867188 -3.203125 2.070312 -3.25 2.3125 -3.25 C 2.550781 -3.25 2.757812 -3.191406 2.9375 -3.078125 C 3.125 -2.972656 3.269531 -2.816406 3.375 -2.609375 C 3.476562 -2.398438 3.53125 -2.148438 3.53125 -1.859375 L 3.53125 -0.15625 C 3.53125 -0.101562 3.515625 -0.0625 3.484375 -0.03125 C 3.453125 -0.0078125 3.414062 0 3.375 0 L 2.71875 0 C 2.675781 0 2.640625 -0.0078125 2.609375 -0.03125 C 2.585938 -0.0625 2.578125 -0.101562 2.578125 -0.15625 L 2.578125 -1.828125 C 2.578125 -2.046875 2.523438 -2.210938 2.421875 -2.328125 C 2.316406 -2.453125 2.160156 -2.515625 1.953125 -2.515625 C 1.765625 -2.515625 1.613281 -2.453125 1.5 -2.328125 C 1.382812 -2.210938 1.328125 -2.046875 1.328125 -1.828125 L 1.328125 -0.15625 C 1.328125 -0.101562 1.3125 -0.0625 1.28125 -0.03125 C 1.257812 -0.0078125 1.226562 0 1.1875 0 Z M 0.53125 0 "/></g></g></g><g fill="#64b431" fill-opacity="1"><g transform="translate(139.259566, 27.747618)"><g><path d="M 0.53125 0 C 0.488281 0 0.453125 -0.0078125 0.421875 -0.03125 C 0.398438 -0.0625 0.390625 -0.101562 0.390625 -0.15625 L 0.390625 -4.203125 C 0.390625 -4.242188 0.398438 -4.273438 0.421875 -4.296875 C 0.453125 -4.328125 0.488281 -4.34375 0.53125 -4.34375 L 1.203125 -4.34375 C 1.242188 -4.34375 1.28125 -4.328125 1.3125 -4.296875 C 1.34375 -4.273438 1.359375 -4.242188 1.359375 -4.203125 L 1.359375 -2.8125 C 1.460938 -2.945312 1.59375 -3.050781 1.75 -3.125 C 1.914062 -3.207031 2.109375 -3.25 2.328125 -3.25 C 2.566406 -3.25 2.78125 -3.191406 2.96875 -3.078125 C 3.15625 -2.972656 3.300781 -2.816406 3.40625 -2.609375 C 3.507812 -2.398438 3.5625 -2.148438 3.5625 -1.859375 L 3.5625 -0.15625 C 3.5625 -0.101562 3.546875 -0.0625 3.515625 -0.03125 C 3.492188 -0.0078125 3.457031 0 3.40625 0 L 2.75 0 C 2.707031 0 2.671875 -0.0078125 2.640625 -0.03125 C 2.609375 -0.0625 2.59375 -0.101562 2.59375 -0.15625 L 2.59375 -1.828125 C 2.59375 -2.046875 2.539062 -2.210938 2.4375 -2.328125 C 2.332031 -2.453125 2.179688 -2.515625 1.984375 -2.515625 C 1.796875 -2.515625 1.644531 -2.453125 1.53125 -2.328125 C 1.414062 -2.210938 1.359375 -2.046875 1.359375 -1.828125 L 1.359375 -0.15625 C 1.359375 -0.101562 1.34375 -0.0625 1.3125 -0.03125 C 1.28125 -0.0078125 1.242188 0 1.203125 0 Z M 0.53125 0 "/></g></g></g><g fill="#ff5b4d" fill-opacity="1"><g transform="translate(104.715054, 33.781695)"><g/></g></g></svg>