<svg xmlns="http://www.w3.org/2000/svg" xmlns:xlink="http://www.w3.org/1999/xlink" width="200" zoomAndPan="magnify" viewBox="0 0 150 37.5" height="50" preserveAspectRatio="xMidYMid meet" version="1.0"><defs><g/><clipPath id="49a265871f"><path d="M 3.652344 9.9375 L 26 9.9375 L 26 21 L 3.652344 21 Z M 3.652344 9.9375 " clip-rule="nonzero"/></clipPath><clipPath id="db02e56d67"><path d="M 36 17 L 41 17 L 41 26.960938 L 36 26.960938 Z M 36 17 " clip-rule="nonzero"/></clipPath><clipPath id="3d6966f9f5"><path d="M 38 22 L 43 22 L 43 26.960938 L 38 26.960938 Z M 38 22 " clip-rule="nonzero"/></clipPath><clipPath id="b3fcbd4801"><path d="M 50 25 L 58 25 L 58 26.960938 L 50 26.960938 Z M 50 25 " clip-rule="nonzero"/></clipPath></defs><g clip-path="url(#49a265871f)"><path fill="#64b431" d="M 24.597656 10.089844 C 25.011719 10.023438 25.425781 9.945312 25.84375 9.9375 C 24.632812 10.125 23.4375 10.421875 22.292969 10.863281 C 21.238281 11.269531 20.242188 11.828125 19.34375 12.511719 C 18.503906 13.140625 17.753906 13.871094 16.960938 14.546875 C 16.0625 15.292969 15.085938 15.929688 14.074219 16.503906 C 11.902344 17.71875 9.582031 18.652344 7.222656 19.429688 C 6.203125 19.757812 5.175781 20.0625 4.140625 20.328125 C 3.984375 20.359375 3.835938 20.414062 3.679688 20.421875 C 4.269531 20.277344 4.851562 20.09375 5.433594 19.921875 C 7.910156 19.160156 10.34375 18.242188 12.640625 17.046875 C 14.265625 16.199219 15.820312 15.203125 17.183594 13.976562 C 17.507812 13.695312 17.800781 13.378906 18.128906 13.101562 C 19.953125 11.523438 22.234375 10.515625 24.597656 10.089844 Z M 24.597656 10.089844 " fill-opacity="1" fill-rule="nonzero"/></g><path fill="#64b431" d="M 30.335938 10.28125 C 32.960938 10.109375 35.59375 10.3125 38.195312 10.679688 C 38.871094 10.734375 39.507812 10.992188 40.148438 11.207031 C 42.152344 11.894531 44.136719 12.652344 46.058594 13.542969 C 44.417969 13.398438 42.765625 13.347656 41.117188 13.34375 C 39.148438 13.335938 37.179688 13.390625 35.210938 13.488281 C 34.742188 13.515625 34.269531 13.53125 33.804688 13.445312 C 33.4375 13.375 33.074219 13.238281 32.785156 12.992188 C 32.003906 12.289062 31.261719 11.539062 30.414062 10.914062 C 30.269531 10.796875 30.085938 10.71875 29.980469 10.558594 C 29.941406 10.503906 29.933594 10.417969 29.996094 10.378906 C 30.09375 10.304688 30.21875 10.296875 30.335938 10.28125 Z M 30.335938 10.28125 " fill-opacity="1" fill-rule="nonzero"/><path fill="#64b431" d="M 26.136719 10.757812 C 26.804688 10.691406 27.492188 10.722656 28.140625 10.914062 C 29.003906 11.160156 29.78125 11.65625 30.414062 12.285156 C 30.945312 12.8125 31.378906 13.429688 31.738281 14.082031 C 29.144531 14.1875 26.554688 14.285156 23.960938 14.390625 C 23.605469 13.613281 23.144531 12.875 22.539062 12.273438 C 22.4375 12.167969 22.300781 12.082031 22.253906 11.9375 C 22.246094 11.824219 22.375 11.773438 22.457031 11.730469 C 22.898438 11.546875 23.347656 11.394531 23.800781 11.253906 C 24.5625 11.023438 25.339844 10.835938 26.136719 10.757812 Z M 26.136719 10.757812 " fill-opacity="1" fill-rule="nonzero"/><path fill="#64b431" d="M 21.0625 12.378906 C 21.230469 12.292969 21.398438 12.175781 21.59375 12.167969 C 21.746094 12.183594 21.863281 12.296875 21.976562 12.386719 C 22.308594 12.6875 22.566406 13.058594 22.8125 13.429688 C 22.949219 13.640625 23.082031 13.855469 23.199219 14.078125 C 23.242188 14.160156 23.289062 14.257812 23.246094 14.347656 C 23.1875 14.441406 23.0625 14.429688 22.964844 14.433594 C 22.253906 14.421875 21.546875 14.433594 20.835938 14.457031 C 20.15625 14.488281 19.472656 14.523438 18.800781 14.632812 C 18.554688 14.675781 18.308594 14.722656 18.078125 14.824219 C 18.597656 13.941406 19.40625 13.261719 20.296875 12.765625 C 20.542969 12.625 20.804688 12.503906 21.0625 12.378906 Z M 21.0625 12.378906 " fill-opacity="1" fill-rule="nonzero"/><path fill="#64b431" d="M 37.554688 13.929688 C 39.109375 13.890625 40.660156 13.851562 42.214844 13.78125 C 43.886719 13.722656 45.566406 13.746094 47.238281 13.902344 C 48.679688 14.027344 50.121094 14.183594 51.558594 14.371094 C 52.316406 14.472656 53.074219 14.582031 53.824219 14.734375 C 54.9375 14.949219 56.058594 15.167969 57.101562 15.625 C 57.414062 15.765625 57.722656 15.921875 58.011719 16.105469 C 57.421875 15.878906 56.816406 15.683594 56.191406 15.5625 C 55.925781 15.507812 55.65625 15.484375 55.390625 15.429688 C 55.089844 15.40625 54.789062 15.433594 54.488281 15.429688 C 53.550781 15.4375 52.613281 15.464844 51.683594 15.59375 C 51.5625 15.613281 51.421875 15.632812 51.34375 15.742188 C 51.277344 15.847656 51.328125 15.976562 51.375 16.082031 C 51.699219 16.648438 51.988281 17.234375 52.285156 17.816406 C 52.492188 18.222656 52.703125 18.628906 52.902344 19.039062 C 52.089844 17.746094 50.96875 16.644531 49.667969 15.839844 C 49.445312 15.703125 49.21875 15.574219 48.980469 15.460938 C 48.660156 15.316406 48.3125 15.234375 47.964844 15.179688 C 47.296875 15.09375 46.636719 14.949219 45.972656 14.839844 C 42.800781 14.289062 39.585938 13.96875 36.363281 13.964844 C 36.761719 13.933594 37.15625 13.941406 37.554688 13.929688 Z M 37.554688 13.929688 " fill-opacity="1" fill-rule="nonzero"/><path fill="#64b431" d="M 45.472656 15.691406 C 45.976562 15.796875 46.480469 15.976562 46.867188 16.328125 C 47.089844 16.527344 47.253906 16.792969 47.328125 17.082031 C 47.375 17.273438 47.347656 17.488281 47.230469 17.652344 C 47.085938 17.847656 46.859375 17.960938 46.632812 18.035156 C 46.839844 17.878906 47.054688 17.699219 47.140625 17.441406 C 47.226562 17.203125 47.148438 16.941406 47 16.746094 C 46.773438 16.433594 46.449219 16.207031 46.121094 16.011719 C 45.910156 15.890625 45.695312 15.785156 45.472656 15.691406 Z M 45.472656 15.691406 " fill-opacity="1" fill-rule="nonzero"/><path fill="#64b431" d="M 55.132812 15.6875 C 55.273438 15.671875 55.414062 15.664062 55.554688 15.679688 C 56.214844 15.8125 56.886719 15.925781 57.53125 16.140625 C 57.71875 16.203125 57.90625 16.277344 58.0625 16.40625 C 58.265625 16.566406 58.398438 16.804688 58.484375 17.046875 C 58.632812 17.484375 58.789062 17.917969 58.894531 18.371094 C 58.9375 18.5625 58.988281 18.773438 58.890625 18.957031 C 58.832031 19.078125 58.695312 19.132812 58.570312 19.125 C 57.300781 19.03125 56.03125 18.980469 54.761719 18.960938 C 54.4375 18.945312 54.101562 18.992188 53.789062 18.882812 C 53.433594 18.761719 53.179688 18.46875 52.972656 18.175781 C 52.632812 17.679688 52.328125 17.160156 52.046875 16.632812 C 51.960938 16.457031 51.878906 16.25 51.929688 16.050781 C 51.96875 15.902344 52.125 15.835938 52.265625 15.828125 C 53.21875 15.734375 54.175781 15.734375 55.132812 15.6875 Z M 55.132812 15.6875 " fill-opacity="1" fill-rule="nonzero"/><path fill="#64b431" d="M 44.6875 15.722656 C 45.183594 15.679688 45.652344 15.90625 46.066406 16.152344 C 46.332031 16.3125 46.589844 16.503906 46.769531 16.761719 C 46.914062 16.96875 46.988281 17.234375 46.941406 17.488281 C 46.871094 17.71875 46.664062 17.875 46.441406 17.941406 C 46.160156 18.023438 45.859375 18.011719 45.570312 17.957031 C 44.890625 17.828125 44.304688 17.335938 44.03125 16.703125 C 43.945312 16.515625 43.933594 16.277344 44.070312 16.109375 C 44.222656 15.917969 44.433594 15.742188 44.6875 15.722656 Z M 44.6875 15.722656 " fill-opacity="1" fill-rule="nonzero"/><path fill="#64b431" d="M 47.921875 15.734375 C 48.414062 15.648438 48.90625 15.84375 49.304688 16.117188 C 49.558594 16.292969 49.785156 16.507812 49.996094 16.734375 C 50.1875 16.929688 50.308594 17.1875 50.375 17.449219 C 50.421875 17.664062 50.425781 17.910156 50.285156 18.089844 C 50.121094 18.296875 49.835938 18.363281 49.585938 18.359375 C 48.90625 18.292969 48.261719 17.925781 47.859375 17.375 C 47.714844 17.175781 47.597656 16.957031 47.507812 16.726562 C 47.4375 16.515625 47.417969 16.277344 47.503906 16.066406 C 47.578125 15.894531 47.742188 15.765625 47.921875 15.734375 Z M 47.921875 15.734375 " fill-opacity="1" fill-rule="nonzero"/><path fill="#64b431" d="M 49.0625 15.808594 C 49.496094 16.042969 49.925781 16.289062 50.296875 16.617188 C 50.484375 16.785156 50.664062 16.976562 50.765625 17.210938 C 50.839844 17.386719 50.851562 17.601562 50.761719 17.773438 C 50.695312 17.917969 50.574219 18.027344 50.453125 18.121094 C 50.582031 17.890625 50.613281 17.609375 50.527344 17.355469 C 50.398438 16.953125 50.101562 16.636719 49.796875 16.355469 C 49.570312 16.152344 49.3125 15.980469 49.0625 15.808594 Z M 49.0625 15.808594 " fill-opacity="1" fill-rule="nonzero"/><path fill="#64b431" d="M 58.609375 16.726562 C 58.621094 16.71875 58.648438 16.707031 58.660156 16.699219 C 58.777344 16.726562 58.871094 16.816406 58.957031 16.898438 C 59.210938 17.164062 59.382812 17.492188 59.53125 17.824219 C 59.628906 18.058594 59.738281 18.289062 59.773438 18.542969 C 59.785156 18.648438 59.792969 18.777344 59.714844 18.863281 C 59.664062 18.894531 59.609375 18.855469 59.570312 18.824219 C 59.246094 18.5 59.082031 18.058594 58.875 17.660156 C 58.769531 17.425781 58.652344 17.195312 58.589844 16.945312 C 58.578125 16.875 58.558594 16.789062 58.609375 16.726562 Z M 58.609375 16.726562 " fill-opacity="1" fill-rule="nonzero"/><g clip-path="url(#db02e56d67)"><path fill="#64b431" d="M 36.71875 17.519531 C 37.269531 17.421875 37.847656 17.425781 38.375 17.632812 C 38.835938 17.804688 39.234375 18.121094 39.542969 18.503906 C 39.925781 18.980469 40.179688 19.546875 40.351562 20.128906 C 40.535156 20.773438 40.621094 21.441406 40.613281 22.105469 C 40.578125 22.699219 40.5 23.292969 40.34375 23.867188 C 40.191406 24.40625 39.972656 24.933594 39.632812 25.382812 C 39.335938 25.777344 38.9375 26.101562 38.476562 26.292969 C 37.957031 26.515625 37.375 26.566406 36.820312 26.492188 C 37.304688 26.445312 37.785156 26.289062 38.175781 25.996094 C 38.621094 25.667969 38.941406 25.195312 39.164062 24.691406 C 39.445312 24.039062 39.589844 23.332031 39.671875 22.628906 C 39.761719 21.941406 39.746094 21.246094 39.660156 20.558594 C 39.585938 19.992188 39.449219 19.429688 39.1875 18.917969 C 38.960938 18.480469 38.628906 18.089844 38.199219 17.839844 C 37.757812 17.578125 37.230469 17.488281 36.71875 17.519531 Z M 36.71875 17.519531 " fill-opacity="1" fill-rule="nonzero"/></g><path fill="#64b431" d="M 18.367188 19.046875 C 18.621094 19.484375 18.898438 19.917969 19.253906 20.277344 C 19.464844 20.484375 19.707031 20.660156 19.984375 20.765625 C 20.273438 20.882812 20.585938 20.910156 20.894531 20.933594 C 24.628906 21.160156 28.367188 21.371094 32.101562 21.589844 C 32.328125 21.609375 32.558594 21.601562 32.78125 21.640625 C 31.011719 21.601562 29.242188 21.582031 27.472656 21.550781 C 25.199219 21.519531 22.925781 21.480469 20.652344 21.449219 C 20.359375 21.433594 20.058594 21.460938 19.769531 21.402344 C 19.335938 21.304688 18.996094 20.941406 18.859375 20.527344 C 18.699219 20.03125 18.523438 19.542969 18.367188 19.046875 Z M 18.367188 19.046875 " fill-opacity="1" fill-rule="nonzero"/><path fill="#64b431" d="M 21.046875 22.140625 C 21.179688 22.125 21.308594 22.09375 21.441406 22.09375 C 23.910156 22.191406 26.378906 22.28125 28.84375 22.355469 C 29.738281 22.375 30.632812 22.40625 31.527344 22.410156 C 31.625 22.410156 31.726562 22.421875 31.824219 22.433594 C 31.46875 22.425781 31.117188 22.464844 30.761719 22.46875 C 28.519531 22.558594 26.277344 22.566406 24.03125 22.554688 C 22.265625 22.546875 20.496094 22.515625 18.726562 22.472656 C 19.5 22.355469 20.273438 22.253906 21.046875 22.140625 Z M 21.046875 22.140625 " fill-opacity="1" fill-rule="nonzero"/><path fill="#64b431" d="M 41.78125 22.414062 C 41.800781 22.359375 41.859375 22.367188 41.90625 22.367188 C 43.230469 22.429688 44.554688 22.488281 45.878906 22.457031 C 46.085938 22.867188 46.441406 23.203125 46.875 23.359375 C 47.15625 23.46875 47.457031 23.507812 47.757812 23.496094 C 50.148438 23.648438 52.542969 23.773438 54.941406 23.738281 C 55.796875 23.707031 56.648438 23.65625 57.5 23.578125 C 58.160156 23.511719 58.824219 23.433594 59.472656 23.296875 C 59.753906 23.234375 60.035156 23.164062 60.300781 23.054688 C 60.4375 22.992188 60.582031 22.925781 60.667969 22.792969 C 60.804688 22.96875 60.863281 23.1875 60.925781 23.398438 C 60.984375 23.597656 60.945312 23.824219 60.808594 23.980469 C 60.613281 24.214844 60.320312 24.332031 60.039062 24.425781 C 59.449219 24.613281 58.835938 24.695312 58.222656 24.765625 C 56.640625 24.933594 55.046875 24.980469 53.453125 25.035156 C 50.164062 25.140625 46.863281 25.042969 43.582031 24.765625 C 43.054688 24.71875 42.527344 24.667969 42 24.605469 C 41.957031 24.59375 41.890625 24.601562 41.882812 24.546875 C 41.882812 23.835938 41.847656 23.121094 41.78125 22.414062 Z M 41.78125 22.414062 " fill-opacity="1" fill-rule="nonzero"/><g clip-path="url(#3d6966f9f5)"><path fill="#64b431" d="M 39.472656 25.972656 C 40.363281 25.207031 40.824219 24.023438 40.871094 22.863281 C 40.953125 23.183594 40.949219 23.515625 40.96875 23.84375 C 40.980469 24.28125 40.992188 24.714844 40.96875 25.152344 C 40.988281 25.242188 41.097656 25.265625 41.175781 25.28125 C 41.558594 25.339844 41.941406 25.335938 42.324219 25.367188 C 42.21875 25.546875 42.054688 25.683594 41.90625 25.828125 C 41.679688 26.046875 41.445312 26.253906 41.199219 26.457031 C 40.921875 26.683594 40.539062 26.667969 40.203125 26.710938 C 39.476562 26.761719 38.746094 26.816406 38.019531 26.75 C 38.550781 26.59375 39.054688 26.335938 39.472656 25.972656 Z M 39.472656 25.972656 " fill-opacity="1" fill-rule="nonzero"/></g><path fill="#64b431" d="M 13.003906 23.460938 C 13.675781 23.515625 14.347656 23.601562 15.019531 23.664062 C 18.121094 23.976562 21.226562 24.273438 24.335938 24.546875 C 26.417969 24.722656 28.496094 24.894531 30.582031 25.015625 C 31.089844 25.035156 31.601562 25.074219 32.113281 25.078125 C 31.289062 25.089844 30.460938 25.066406 29.636719 25.0625 C 27.546875 25.042969 25.453125 25.027344 23.363281 25.019531 C 23.210938 25.015625 23.0625 25.023438 22.914062 25.011719 C 19.609375 24.496094 16.308594 23.972656 13.003906 23.460938 Z M 13.003906 23.460938 " fill-opacity="1" fill-rule="nonzero"/><g clip-path="url(#b3fcbd4801)"><path fill="#64b431" d="M 55.246094 25.53125 C 55.894531 25.511719 56.542969 25.484375 57.1875 25.429688 C 57.074219 25.632812 56.886719 25.773438 56.714844 25.921875 C 55.910156 26.546875 54.929688 26.96875 53.910156 27.027344 C 53.257812 27.066406 52.597656 26.9375 52.007812 26.65625 C 51.4375 26.390625 50.933594 26 50.496094 25.550781 C 52.082031 25.570312 53.664062 25.574219 55.246094 25.53125 Z M 55.246094 25.53125 " fill-opacity="1" fill-rule="nonzero"/></g><g fill="#050a30" fill-opacity="1"><g transform="translate(67.22871, 18.97344)"><g><path d="M 3.828125 -8.140625 L 0.90625 -8.140625 L 1.375 -10.390625 L 10.25 -10.390625 L 9.78125 -8.140625 L 6.859375 -8.140625 L 5.125 0 L 2.09375 0 Z M 3.828125 -8.140625 "/></g></g></g><g fill="#050a30" fill-opacity="1"><g transform="translate(76.0733, 18.97344)"><g><path d="M 5.6875 -10.390625 L 8.890625 -10.390625 L 10.6875 0 L 7.515625 0 L 7.15625 -2.21875 L 3.984375 -2.21875 L 2.65625 0 L -0.5 0 Z M 7.171875 -4.390625 L 6.65625 -7.4375 L 4.84375 -4.390625 Z M 7.171875 -4.390625 "/></g></g></g><g fill="#050a30" fill-opacity="1"><g transform="translate(87.871499, 18.97344)"><g><path d="M 4.453125 -5.265625 L 1.84375 -10.390625 L 5.453125 -10.390625 L 6.78125 -7.671875 L 9.28125 -10.390625 L 12.890625 -10.390625 L 8.125 -5.265625 L 10.84375 0 L 7.1875 0 L 5.765625 -2.828125 L 3.15625 0 L -0.5 0 Z M 4.453125 -5.265625 "/></g></g></g><g fill="#050a30" fill-opacity="1"><g transform="translate(99.831107, 18.97344)"><g><path d="M 2.015625 -10.390625 L 5.046875 -10.390625 L 2.859375 0 L -0.171875 0 Z M 2.015625 -10.390625 "/></g></g></g><g fill="#050a30" fill-opacity="1"><g transform="translate(104.124231, 18.97344)"><g/></g></g><g fill="#050a30" fill-opacity="1"><g transform="translate(109.41803, 18.97344)"><g><path d="M 2.015625 -10.390625 L 5.046875 -10.390625 L 3.34375 -2.328125 L 8.015625 -2.328125 L 7.53125 0 L -0.171875 0 Z M 2.015625 -10.390625 "/></g></g></g><g fill="#050a30" fill-opacity="1"><g transform="translate(117.74615, 18.97344)"><g><path d="M 5.6875 -10.390625 L 8.890625 -10.390625 L 10.6875 0 L 7.515625 0 L 7.15625 -2.21875 L 3.984375 -2.21875 L 2.65625 0 L -0.5 0 Z M 7.171875 -4.390625 L 6.65625 -7.4375 L 4.84375 -4.390625 Z M 7.171875 -4.390625 "/></g></g></g><g fill="#050a30" fill-opacity="1"><g transform="translate(129.544346, 18.97344)"><g><path d="M 5.125 0.15625 C 3.6875 0.15625 2.546875 -0.179688 1.703125 -0.859375 C 0.859375 -1.546875 0.4375 -2.519531 0.4375 -3.78125 C 0.4375 -4.195312 0.484375 -4.632812 0.578125 -5.09375 C 1.359375 -8.738281 3.710938 -10.5625 7.640625 -10.5625 C 8.859375 -10.5625 9.898438 -10.410156 10.765625 -10.109375 L 10.203125 -7.5 C 9.441406 -7.8125 8.472656 -7.96875 7.296875 -7.96875 C 6.335938 -7.96875 5.546875 -7.734375 4.921875 -7.265625 C 4.296875 -6.796875 3.882812 -6.070312 3.6875 -5.09375 C 3.582031 -4.675781 3.53125 -4.3125 3.53125 -4 C 3.53125 -3.4375 3.695312 -3.03125 4.03125 -2.78125 C 4.363281 -2.539062 4.914062 -2.421875 5.6875 -2.421875 C 6.195312 -2.421875 6.707031 -2.488281 7.21875 -2.625 L 7.53125 -4.140625 L 5.46875 -4.140625 L 5.875 -6.015625 L 10.46875 -6.015625 L 9.359375 -0.796875 C 8.859375 -0.515625 8.25 -0.285156 7.53125 -0.109375 C 6.820312 0.0664062 6.019531 0.15625 5.125 0.15625 Z M 5.125 0.15625 "/></g></g></g><g fill="#050a30" fill-opacity="1"><g transform="translate(139.857682, 18.97344)"><g><path d="M 2.015625 -10.390625 L 5.046875 -10.390625 L 2.859375 0 L -0.171875 0 Z M 2.015625 -10.390625 "/></g></g></g><g fill="#64b431" fill-opacity="1"><g transform="translate(69.280769, 26.945512)"><g><path d="M 1.53125 0 C 1.488281 0 1.453125 -0.0078125 1.421875 -0.03125 C 1.398438 -0.0625 1.390625 -0.101562 1.390625 -0.15625 L 1.390625 -3.40625 L 0.28125 -3.40625 C 0.238281 -3.40625 0.203125 -3.414062 0.171875 -3.4375 C 0.148438 -3.46875 0.140625 -3.507812 0.140625 -3.5625 L 0.140625 -4.109375 C 0.140625 -4.148438 0.148438 -4.179688 0.171875 -4.203125 C 0.203125 -4.234375 0.238281 -4.25 0.28125 -4.25 L 3.46875 -4.25 C 3.507812 -4.25 3.539062 -4.234375 3.5625 -4.203125 C 3.59375 -4.179688 3.609375 -4.148438 3.609375 -4.109375 L 3.609375 -3.5625 C 3.609375 -3.507812 3.59375 -3.46875 3.5625 -3.4375 C 3.539062 -3.414062 3.507812 -3.40625 3.46875 -3.40625 L 2.359375 -3.40625 L 2.359375 -0.15625 C 2.359375 -0.101562 2.34375 -0.0625 2.3125 -0.03125 C 2.289062 -0.0078125 2.257812 0 2.21875 0 Z M 1.53125 0 "/></g></g></g><g fill="#64b431" fill-opacity="1"><g transform="translate(76.404096, 26.945512)"><g><path d="M 0.203125 0 C 0.160156 0 0.128906 -0.0078125 0.109375 -0.03125 C 0.0859375 -0.0625 0.078125 -0.09375 0.078125 -0.125 C 0.078125 -0.144531 0.078125 -0.164062 0.078125 -0.1875 L 1.53125 -4.09375 C 1.539062 -4.132812 1.5625 -4.171875 1.59375 -4.203125 C 1.632812 -4.234375 1.6875 -4.25 1.75 -4.25 L 2.53125 -4.25 C 2.59375 -4.25 2.640625 -4.234375 2.671875 -4.203125 C 2.710938 -4.171875 2.742188 -4.132812 2.765625 -4.09375 L 4.203125 -0.1875 C 4.210938 -0.164062 4.21875 -0.144531 4.21875 -0.125 C 4.21875 -0.09375 4.203125 -0.0625 4.171875 -0.03125 C 4.148438 -0.0078125 4.117188 0 4.078125 0 L 3.4375 0 C 3.382812 0 3.34375 -0.0078125 3.3125 -0.03125 C 3.28125 -0.0625 3.265625 -0.09375 3.265625 -0.125 L 3 -0.796875 L 1.28125 -0.796875 L 1.03125 -0.125 C 1.019531 -0.09375 1 -0.0625 0.96875 -0.03125 C 0.945312 -0.0078125 0.90625 0 0.84375 0 Z M 1.515625 -1.59375 L 2.765625 -1.59375 L 2.140625 -3.328125 Z M 1.984375 -4.5625 C 1.929688 -4.5625 1.890625 -4.566406 1.859375 -4.578125 C 1.828125 -4.585938 1.796875 -4.609375 1.765625 -4.640625 L 0.984375 -5.28125 C 0.960938 -5.300781 0.953125 -5.328125 0.953125 -5.359375 C 0.953125 -5.429688 0.988281 -5.46875 1.0625 -5.46875 L 1.8125 -5.46875 C 1.863281 -5.46875 1.90625 -5.460938 1.9375 -5.453125 C 1.96875 -5.441406 2.003906 -5.410156 2.046875 -5.359375 L 2.5625 -4.734375 C 2.582031 -4.710938 2.59375 -4.6875 2.59375 -4.65625 C 2.59375 -4.59375 2.554688 -4.5625 2.484375 -4.5625 Z M 1.984375 -4.5625 "/></g></g></g><g fill="#64b431" fill-opacity="1"><g transform="translate(84.055693, 26.945512)"><g><path d="M 0.59375 0 C 0.550781 0 0.515625 -0.0078125 0.484375 -0.03125 C 0.460938 -0.0625 0.453125 -0.101562 0.453125 -0.15625 L 0.453125 -4.109375 C 0.453125 -4.148438 0.460938 -4.179688 0.484375 -4.203125 C 0.515625 -4.234375 0.550781 -4.25 0.59375 -4.25 L 1.296875 -4.25 C 1.335938 -4.25 1.367188 -4.234375 1.390625 -4.203125 C 1.421875 -4.179688 1.4375 -4.148438 1.4375 -4.109375 L 1.4375 -0.15625 C 1.4375 -0.101562 1.421875 -0.0625 1.390625 -0.03125 C 1.367188 -0.0078125 1.335938 0 1.296875 0 Z M 0.59375 0 "/></g></g></g><g fill="#64b431" fill-opacity="1"><g transform="translate(89.320972, 26.945512)"><g/></g></g><g fill="#64b431" fill-opacity="1"><g transform="translate(94.039765, 26.945512)"><g><path d="M 0.21875 0 C 0.1875 0 0.15625 -0.0078125 0.125 -0.03125 C 0.101562 -0.0625 0.09375 -0.09375 0.09375 -0.125 C 0.09375 -0.132812 0.09375 -0.144531 0.09375 -0.15625 C 0.101562 -0.175781 0.109375 -0.191406 0.109375 -0.203125 L 1.453125 -2.171875 L 0.203125 -4.046875 C 0.191406 -4.078125 0.1875 -4.101562 0.1875 -4.125 C 0.1875 -4.15625 0.195312 -4.179688 0.21875 -4.203125 C 0.238281 -4.234375 0.269531 -4.25 0.3125 -4.25 L 1.0625 -4.25 C 1.113281 -4.25 1.15625 -4.234375 1.1875 -4.203125 C 1.21875 -4.179688 1.242188 -4.160156 1.265625 -4.140625 L 2.078125 -2.921875 L 2.890625 -4.140625 C 2.898438 -4.160156 2.921875 -4.179688 2.953125 -4.203125 C 2.992188 -4.234375 3.039062 -4.25 3.09375 -4.25 L 3.796875 -4.25 C 3.835938 -4.25 3.867188 -4.234375 3.890625 -4.203125 C 3.910156 -4.179688 3.921875 -4.15625 3.921875 -4.125 C 3.921875 -4.09375 3.914062 -4.066406 3.90625 -4.046875 L 2.65625 -2.171875 L 4 -0.203125 C 4.007812 -0.191406 4.015625 -0.175781 4.015625 -0.15625 C 4.023438 -0.144531 4.03125 -0.132812 4.03125 -0.125 C 4.03125 -0.09375 4.015625 -0.0625 3.984375 -0.03125 C 3.953125 -0.0078125 3.921875 0 3.890625 0 L 3.125 0 C 3.070312 0 3.023438 -0.0078125 2.984375 -0.03125 C 2.953125 -0.0625 2.929688 -0.0859375 2.921875 -0.109375 L 2.03125 -1.390625 L 1.15625 -0.109375 C 1.144531 -0.0859375 1.125 -0.0625 1.09375 -0.03125 C 1.0625 -0.0078125 1.019531 0 0.96875 0 Z M 0.21875 0 "/></g></g></g><g fill="#64b431" fill-opacity="1"><g transform="translate(101.521346, 26.945512)"><g><path d="M 0.59375 0 C 0.550781 0 0.515625 -0.0078125 0.484375 -0.03125 C 0.460938 -0.0625 0.453125 -0.101562 0.453125 -0.15625 L 0.453125 -4.109375 C 0.453125 -4.148438 0.460938 -4.179688 0.484375 -4.203125 C 0.515625 -4.234375 0.550781 -4.25 0.59375 -4.25 L 3.359375 -4.25 C 3.398438 -4.25 3.429688 -4.234375 3.453125 -4.203125 C 3.484375 -4.179688 3.5 -4.148438 3.5 -4.109375 L 3.5 -3.609375 C 3.5 -3.566406 3.484375 -3.53125 3.453125 -3.5 C 3.429688 -3.476562 3.398438 -3.46875 3.359375 -3.46875 L 1.390625 -3.46875 L 1.390625 -2.515625 L 3.21875 -2.515625 C 3.257812 -2.515625 3.296875 -2.5 3.328125 -2.46875 C 3.359375 -2.445312 3.375 -2.410156 3.375 -2.359375 L 3.375 -1.921875 C 3.375 -1.878906 3.359375 -1.84375 3.328125 -1.8125 C 3.296875 -1.78125 3.257812 -1.765625 3.21875 -1.765625 L 1.390625 -1.765625 L 1.390625 -0.796875 L 3.40625 -0.796875 C 3.445312 -0.796875 3.484375 -0.78125 3.515625 -0.75 C 3.546875 -0.71875 3.5625 -0.679688 3.5625 -0.640625 L 3.5625 -0.15625 C 3.5625 -0.101562 3.546875 -0.0625 3.515625 -0.03125 C 3.484375 -0.0078125 3.445312 0 3.40625 0 Z M 0.921875 -4.5625 C 0.867188 -4.5625 0.84375 -4.585938 0.84375 -4.640625 C 0.84375 -4.671875 0.859375 -4.703125 0.890625 -4.734375 L 1.5 -5.375 C 1.539062 -5.414062 1.578125 -5.441406 1.609375 -5.453125 C 1.640625 -5.460938 1.671875 -5.46875 1.703125 -5.46875 L 2.140625 -5.46875 C 2.179688 -5.46875 2.210938 -5.460938 2.234375 -5.453125 C 2.265625 -5.441406 2.300781 -5.414062 2.34375 -5.375 L 2.953125 -4.734375 C 2.984375 -4.703125 3 -4.671875 3 -4.640625 C 3 -4.585938 2.972656 -4.5625 2.921875 -4.5625 L 2.640625 -4.5625 C 2.609375 -4.5625 2.570312 -4.5625 2.53125 -4.5625 C 2.5 -4.570312 2.472656 -4.582031 2.453125 -4.59375 L 1.921875 -4.90625 L 1.390625 -4.59375 C 1.367188 -4.582031 1.335938 -4.570312 1.296875 -4.5625 C 1.265625 -4.5625 1.234375 -4.5625 1.203125 -4.5625 Z M 0.921875 -4.5625 "/></g></g></g><g fill="#64b431" fill-opacity="1"><g transform="translate(102.705495, 24.631866)"><g><path d="M 0.46875 -3.609375 C 0.394531 -3.609375 0.359375 -3.644531 0.359375 -3.71875 C 0.359375 -3.75 0.367188 -3.773438 0.390625 -3.796875 L 0.90625 -4.421875 C 0.945312 -4.460938 0.984375 -4.488281 1.015625 -4.5 C 1.046875 -4.519531 1.085938 -4.53125 1.140625 -4.53125 L 1.828125 -4.53125 C 1.910156 -4.53125 1.953125 -4.488281 1.953125 -4.40625 C 1.953125 -4.382812 1.941406 -4.363281 1.921875 -4.34375 L 1.140625 -3.703125 C 1.109375 -3.671875 1.078125 -3.644531 1.046875 -3.625 C 1.015625 -3.613281 0.972656 -3.609375 0.921875 -3.609375 Z M 0.46875 -3.609375 "/></g></g></g><g fill="#64b431" fill-opacity="1"><g transform="translate(108.729684, 26.945512)"><g/></g></g><g fill="#64b431" fill-opacity="1"><g transform="translate(113.448476, 26.945512)"><g><path d="M 1.53125 0 C 1.488281 0 1.453125 -0.0078125 1.421875 -0.03125 C 1.398438 -0.0625 1.390625 -0.101562 1.390625 -0.15625 L 1.390625 -3.40625 L 0.28125 -3.40625 C 0.238281 -3.40625 0.203125 -3.414062 0.171875 -3.4375 C 0.148438 -3.46875 0.140625 -3.507812 0.140625 -3.5625 L 0.140625 -4.109375 C 0.140625 -4.148438 0.148438 -4.179688 0.171875 -4.203125 C 0.203125 -4.234375 0.238281 -4.25 0.28125 -4.25 L 3.46875 -4.25 C 3.507812 -4.25 3.539062 -4.234375 3.5625 -4.203125 C 3.59375 -4.179688 3.609375 -4.148438 3.609375 -4.109375 L 3.609375 -3.5625 C 3.609375 -3.507812 3.59375 -3.46875 3.5625 -3.4375 C 3.539062 -3.414062 3.507812 -3.40625 3.46875 -3.40625 L 2.359375 -3.40625 L 2.359375 -0.15625 C 2.359375 -0.101562 2.34375 -0.0625 2.3125 -0.03125 C 2.289062 -0.0078125 2.257812 0 2.21875 0 Z M 1.53125 0 "/></g></g></g><g fill="#64b431" fill-opacity="1"><g transform="translate(120.571803, 26.945512)"><g><path d="M 0.53125 0 C 0.488281 0 0.453125 -0.0078125 0.421875 -0.03125 C 0.398438 -0.0625 0.390625 -0.101562 0.390625 -0.15625 L 0.390625 -4.15625 C 0.390625 -4.207031 0.398438 -4.242188 0.421875 -4.265625 C 0.453125 -4.296875 0.488281 -4.3125 0.53125 -4.3125 L 1.1875 -4.3125 C 1.238281 -4.3125 1.273438 -4.296875 1.296875 -4.265625 C 1.328125 -4.242188 1.34375 -4.207031 1.34375 -4.15625 L 1.34375 -2.796875 C 1.445312 -2.921875 1.578125 -3.019531 1.734375 -3.09375 C 1.898438 -3.175781 2.09375 -3.21875 2.3125 -3.21875 C 2.550781 -3.21875 2.765625 -3.164062 2.953125 -3.0625 C 3.140625 -2.957031 3.28125 -2.800781 3.375 -2.59375 C 3.476562 -2.382812 3.53125 -2.132812 3.53125 -1.84375 L 3.53125 -0.15625 C 3.53125 -0.101562 3.515625 -0.0625 3.484375 -0.03125 C 3.460938 -0.0078125 3.429688 0 3.390625 0 L 2.71875 0 C 2.675781 0 2.640625 -0.0078125 2.609375 -0.03125 C 2.585938 -0.0625 2.578125 -0.101562 2.578125 -0.15625 L 2.578125 -1.8125 C 2.578125 -2.03125 2.523438 -2.195312 2.421875 -2.3125 C 2.316406 -2.425781 2.164062 -2.484375 1.96875 -2.484375 C 1.78125 -2.484375 1.628906 -2.425781 1.515625 -2.3125 C 1.398438 -2.195312 1.34375 -2.03125 1.34375 -1.8125 L 1.34375 -0.15625 C 1.34375 -0.101562 1.328125 -0.0625 1.296875 -0.03125 C 1.273438 -0.0078125 1.238281 0 1.1875 0 Z M 0.53125 0 "/></g></g></g><g fill="#64b431" fill-opacity="1"><g transform="translate(127.828716, 26.945512)"><g><path d="M 0.9375 -4.625 C 1.0625 -4.625 1.171875 -4.59375 1.265625 -4.53125 C 1.367188 -4.46875 1.421875 -4.347656 1.421875 -4.171875 C 1.421875 -4.003906 1.367188 -3.890625 1.265625 -3.828125 C 1.171875 -3.765625 1.0625 -3.734375 0.9375 -3.734375 C 0.789062 -3.734375 0.671875 -3.765625 0.578125 -3.828125 C 0.484375 -3.890625 0.4375 -4.003906 0.4375 -4.171875 C 0.4375 -4.347656 0.484375 -4.46875 0.578125 -4.53125 C 0.671875 -4.59375 0.789062 -4.625 0.9375 -4.625 Z M 1.375 -3.3125 L 1.375 0 L 0.46875 0 L 0.46875 -3.3125 Z M 0.9375 1.28125 C 0.800781 1.28125 0.6875 1.242188 0.59375 1.171875 C 0.5 1.109375 0.453125 0.992188 0.453125 0.828125 C 0.453125 0.660156 0.5 0.546875 0.59375 0.484375 C 0.6875 0.421875 0.800781 0.390625 0.9375 0.390625 C 1.070312 0.390625 1.1875 0.421875 1.28125 0.484375 C 1.382812 0.546875 1.4375 0.660156 1.4375 0.828125 C 1.4375 0.992188 1.382812 1.109375 1.28125 1.171875 C 1.1875 1.242188 1.070312 1.28125 0.9375 1.28125 Z M 0.9375 1.28125 "/></g></g></g><g fill="#64b431" fill-opacity="1"><g transform="translate(133.057563, 26.945512)"><g><path d="M 0.53125 0 C 0.488281 0 0.453125 -0.0078125 0.421875 -0.03125 C 0.390625 -0.0625 0.375 -0.101562 0.375 -0.15625 L 0.375 -3.015625 C 0.375 -3.054688 0.390625 -3.085938 0.421875 -3.109375 C 0.453125 -3.140625 0.488281 -3.15625 0.53125 -3.15625 L 1.125 -3.15625 C 1.164062 -3.15625 1.203125 -3.140625 1.234375 -3.109375 C 1.265625 -3.085938 1.28125 -3.054688 1.28125 -3.015625 L 1.28125 -2.765625 C 1.382812 -2.898438 1.519531 -3.007812 1.6875 -3.09375 C 1.851562 -3.175781 2.054688 -3.21875 2.296875 -3.21875 C 2.535156 -3.21875 2.742188 -3.164062 2.921875 -3.0625 C 3.109375 -2.957031 3.25 -2.800781 3.34375 -2.59375 C 3.445312 -2.382812 3.5 -2.132812 3.5 -1.84375 L 3.5 -0.15625 C 3.5 -0.101562 3.484375 -0.0625 3.453125 -0.03125 C 3.429688 -0.0078125 3.394531 0 3.34375 0 L 2.703125 0 C 2.660156 0 2.625 -0.0078125 2.59375 -0.03125 C 2.5625 -0.0625 2.546875 -0.101562 2.546875 -0.15625 L 2.546875 -1.8125 C 2.546875 -2.03125 2.492188 -2.195312 2.390625 -2.3125 C 2.296875 -2.425781 2.144531 -2.484375 1.9375 -2.484375 C 1.75 -2.484375 1.597656 -2.425781 1.484375 -2.3125 C 1.378906 -2.195312 1.328125 -2.03125 1.328125 -1.8125 L 1.328125 -0.15625 C 1.328125 -0.101562 1.3125 -0.0625 1.28125 -0.03125 C 1.25 -0.0078125 1.210938 0 1.171875 0 Z M 0.53125 0 "/></g></g></g><g fill="#64b431" fill-opacity="1"><g transform="translate(140.278045, 26.945512)"><g><path d="M 0.53125 0 C 0.488281 0 0.453125 -0.0078125 0.421875 -0.03125 C 0.398438 -0.0625 0.390625 -0.101562 0.390625 -0.15625 L 0.390625 -4.15625 C 0.390625 -4.207031 0.398438 -4.242188 0.421875 -4.265625 C 0.453125 -4.296875 0.488281 -4.3125 0.53125 -4.3125 L 1.1875 -4.3125 C 1.238281 -4.3125 1.273438 -4.296875 1.296875 -4.265625 C 1.328125 -4.242188 1.34375 -4.207031 1.34375 -4.15625 L 1.34375 -2.796875 C 1.445312 -2.921875 1.578125 -3.019531 1.734375 -3.09375 C 1.898438 -3.175781 2.09375 -3.21875 2.3125 -3.21875 C 2.550781 -3.21875 2.765625 -3.164062 2.953125 -3.0625 C 3.140625 -2.957031 3.28125 -2.800781 3.375 -2.59375 C 3.476562 -2.382812 3.53125 -2.132812 3.53125 -1.84375 L 3.53125 -0.15625 C 3.53125 -0.101562 3.515625 -0.0625 3.484375 -0.03125 C 3.460938 -0.0078125 3.429688 0 3.390625 0 L 2.71875 0 C 2.675781 0 2.640625 -0.0078125 2.609375 -0.03125 C 2.585938 -0.0625 2.578125 -0.101562 2.578125 -0.15625 L 2.578125 -1.8125 C 2.578125 -2.03125 2.523438 -2.195312 2.421875 -2.3125 C 2.316406 -2.425781 2.164062 -2.484375 1.96875 -2.484375 C 1.78125 -2.484375 1.628906 -2.425781 1.515625 -2.3125 C 1.398438 -2.195312 1.34375 -2.03125 1.34375 -1.8125 L 1.34375 -0.15625 C 1.34375 -0.101562 1.328125 -0.0625 1.296875 -0.03125 C 1.273438 -0.0078125 1.238281 0 1.1875 0 Z M 0.53125 0 "/></g></g></g><g fill="#ff5b4d" fill-opacity="1"><g transform="translate(106.051041, 32.924129)"><g/></g></g></svg>